<svg xmlns="http://www.w3.org/2000/svg" fill-rule="evenodd" stroke-linejoin="round" stroke-miterlimit="2" clip-rule="evenodd" viewBox="0 0 238 78"><path fill="none" d="M0 0h238v78H0z"/><path fill="#fff" fill-rule="nonzero" d="M26 22.1c-1.2 0-2.3.5-3.2 1.3l-1.1 1.3-1.1-1.3c-.9-.8-2-1.3-3.2-1.3H0v32.6c0 4.6 3.6 9.8 10.8 15.4 5.2 4.2 10.5 7 10.5 7a.7.7 0 00.7 0c1-.4 21.4-11.4 21.4-22.5V22H25.9z"/><path fill="#007fb0" fill-rule="nonzero" d="M26 23.6c-.8 0-1.6.3-2.1.9l-1.1 1.2-1.1 1.2-1.1-1.2-1.1-1.3c-.6-.5-1.3-.8-2-.8h-16V50l20.2-11.6L41.9 50V23.6h-16z"/><path fill="#fff" fill-rule="nonzero" d="M13.8 36H13v-6.3l-1.4 1.1-.5-.6 2-1.6h.7V36zm3-5.6c0 .4.1.7.4 1 .2.1.5.3.9.3.3 0 .6-.2.9-.4.2-.2.3-.5.3-.9 0-.3-.1-.6-.3-.8-.3-.3-.6-.4-1-.4-.3 0-.6.1-.8.4-.3.2-.4.5-.4.8m-.2 3.5v.6l.4.4a1.5 1.5 0 001.6.4l.5-.4c.2 0 .3-.2.3-.4l.2-.6c0-.2 0-.4-.2-.6a1.4 1.4 0 00-.8-.8h-.5a1.5 1.5 0 00-1 .3l-.4.5-.1.6m-.6-3.5l.1-.8.5-.6c.1-.2.4-.3.6-.4l.9-.1h.8l.7.5a1.8 1.8 0 01.6 1.4A1.7 1.7 0 0119 32a1.9 1.9 0 011 .7 2 2 0 01.4 1.2c0 .4 0 .7-.2 1a2 2 0 01-1.2 1 2.9 2.9 0 01-1.9 0c-.3 0-.5-.2-.7-.4a2 2 0 01-.7-1.6 2.1 2.1 0 01.4-1.2 1.7 1.7 0 011-.7l-.4-.2a1.7 1.7 0 01-.7-1.4m5.6 4.6l2.8-2.7a11.6 11.6 0 00.8-1 1.6 1.6 0 00.1-1.4l-.2-.4-.5-.2-.5-.1c-.4 0-.7.1-1 .3-.2.2-.3.5-.4.9l-1-.1c0-.3.2-.6.3-.8l.5-.6.7-.3.9-.1h.8l.8.5a1.8 1.8 0 01.6 1.5 2.5 2.5 0 01-.4 1.4l-.5.6-.5.5-2.3 2.2h3.8v.8h-4.8v-1zm7.1-4.6c0 .4.1.7.3 1 .2.1.5.3 1 .3.3 0 .6-.2.8-.4.2-.2.4-.5.4-.9 0-.3-.2-.6-.4-.8-.2-.3-.5-.4-.9-.4s-.7.1-.9.4c-.2.2-.3.5-.3.8m-.3 3.5l.1.6.4.4a1.5 1.5 0 001.6.4l.5-.4.3-.4.1-.6-.1-.6c0-.2-.2-.3-.3-.5a1.5 1.5 0 00-1.7-.3l-.4.3-.4.5v.6m-.7-3.5c0-.3 0-.6.2-.8 0-.2.2-.4.4-.6l.7-.4.8-.1h.9l.6.5a1.8 1.8 0 01.6 1.4 1.7 1.7 0 01-1.2 1.6l.6.3.5.4.3.6v.6l-.1 1a2 2 0 01-1.3 1 2.9 2.9 0 01-1.8 0c-.3 0-.6-.2-.8-.4a2 2 0 01-.6-1.6 2.1 2.1 0 01.3-1.2A1.7 1.7 0 0129 32l-.5-.2a1.7 1.7 0 01-.7-1.4"/><path fill="#fff" d="M42.2 14l-.4-1-15.4 6.5.4 1zm-4.6-7.2l-.7-.7L25 17.9l.7.7zm-7-4.9l-1-.4-6.4 15.4 1 .4zM22.2 0h-1v16.7h1zm-2.1 16.9L13.7 1.4l-1 .4 6.5 15.5zm-1.8 1L6.5 6l-.7.7 11.8 11.8zM17 19.5L1.6 13l-.4 1 15.4 6.3z"/><path fill="#be1622" fill-rule="nonzero" d="M13.8 65.4l.2 1.7 1.7-.3s0-1.7.2-2.3c-.5.4-2 .9-2 .9m-3-13.6l-1.6.7.8 1.5s1.6-.5 2.3-.5c-.6-.4-1.5-1.7-1.5-1.7m9.6-7l1.2-1.2 1.1 1.2s-1 1.3-1.1 2c-.2-.7-1.2-2-1.2-2m12 7l1.5.7-.8 1.5s-1.5-.5-2.2-.5c.6-.4 1.5-1.7 1.5-1.7m-2.9 13.6l-.3 1.7-1.6-.3s0-1.7-.2-2.3c.5.4 2 .9 2 .9M22.4 52c1.5.2 2.8 1.2 3.4 2.5l3.3-1s1.3-.3 1.8-1.3c.6-1.1.2-2-.5-2.7-.7-.6-2-.7-3.2-.5-.2-1.1-.7-2.4-1.5-2.9s-1.9-.6-2.7.3c-.8.9-.7 2.2-.7 2.2V52zm-8.1 1.6l3.2.9c.7-1.3 2-2.3 3.5-2.5l.1-3.4s.1-1.3-.7-2.2c-.9-.9-1.9-.8-2.7-.3-.8.5-1.4 1.8-1.5 3-1.1-.3-2.5-.2-3.2.4-.8.7-1.2 1.6-.6 2.7.6 1 1.9 1.4 1.9 1.4m9.5 7.1a4.6 4.6 0 01-4.2 0l-2.1 2.7s-.9 1-.7 2.2c.1 1.2 1 1.7 2 1.8.9 0 2.1-.6 2.9-1.5.8.9 2 1.6 3 1.5.9-.1 1.8-.6 2-1.8 0-1.2-.8-2.2-.8-2.2l-2-2.7zm8-6c-1.1-.5-2.4 0-2.4 0l-3.1 1.1v.8c0 1.3-.5 2.4-1.3 3.3l1.8 2.8s.7 1 2 1.3c1.1.2 1.9-.4 2.3-1.3.3-.9 0-2.2-.5-3.3 1-.4 2-1.4 2.3-2.3.2-1 0-1.9-1.1-2.4M17 56.6l.1-.8-3.2-1.2s-1.2-.4-2.3 0c-1 .6-1.3 1.6-1.1 2.5.2 1 1.2 1.9 2.3 2.3-.6 1-.8 2.4-.5 3.3.4.9 1.1 1.5 2.4 1.3 1.1-.2 1.8-1.3 1.8-1.3l2-2.8c-1-.9-1.5-2-1.5-3.3"/><path fill="#be1622" fill-rule="nonzero" d="M18 56.6a3.7 3.7 0 117.4 0 3.7 3.7 0 01-7.4 0"/><path fill="#fff" fill-rule="nonzero" d="M63.1 70.7a5 5 0 01-.3 1.7 3.8 3.8 0 01-2.2 2.3c-.5.2-1.2.3-1.9.3s-1.3-.1-1.9-.3l-1.4-1-.8-1.3a5 5 0 01-.3-1.7v-6.4h2.3v6.3c0 .3 0 .6.2.9 0 .3.2.5.4.7l.7.5.8.2a2 2 0 001.5-.7l.5-.7.1-.9v-6.3h2.3v6.4zm8.8-3.7c-.2-.3-.5-.5-.8-.6l-1.2-.3a2.9 2.9 0 00-2.1 1l-.7 1-.2 1.4c0 .5 0 1 .2 1.3l.6 1.1a2.8 2.8 0 002.1 1 2.5 2.5 0 002.2-1.1l2 1.4a5.2 5.2 0 01-3.8 1.8c-.9 0-1.6-.1-2.3-.4a5 5 0 01-3-2.8c-.3-.7-.4-1.5-.4-2.3 0-.8.1-1.6.4-2.3a5 5 0 013-2.8 6.4 6.4 0 013.2-.3 5 5 0 011.8.7l.8.7-1.8 1.5zm3.1-2.7h2.3v8.3h4.2v2.1H75V64.3zm11.6 7.3a11.1 11.1 0 00-1.4.1l-.6.3-.2.6c0 .3 0 .5.3.6l.7.2a2.2 2.2 0 001.2-.4l.4-.4.1-.6v-.4h-.5zm.5 2.2a2 2 0 01-1 .8 3.4 3.4 0 01-2.3.1c-.3 0-.5-.2-.8-.4a2 2 0 01-.7-1.6c0-.4 0-.8.2-1 .1-.4.3-.6.6-.8l.9-.4a6.5 6.5 0 012.1-.3h1c0-.4-.1-.7-.4-1-.3-.2-.6-.3-1-.3s-.7 0-1 .2l-.8.6-1.2-1.2a4 4 0 011.5-.8 5.2 5.2 0 013.3 0c.4 0 .7.3 1 .6l.5 1.2.1 1.6v3.6h-2v-.9zm3.5-6.2h2.2v1c0-.2.2-.3.3-.5l.5-.4a2.6 2.6 0 011.3-.3c.6 0 1 0 1.3.2.4.2.7.4.9.7.1.4.3.7.3 1.1l.1 1.4v4h-2.2v-4.2l-.1-.6a1 1 0 00-.4-.5 1 1 0 00-.6-.2c-.3 0-.5 0-.7.2a1 1 0 00-.4.4l-.2.6v4.2h-2.3v-7.1zM66.8 32c0 .9-.2 1.7-.5 2.5a5.7 5.7 0 01-3.3 3 7 7 0 01-2.4.5 7 7 0 01-2.5-.4 5.5 5.5 0 01-3.3-3.1c-.3-.8-.5-1.6-.5-2.6v-9.8h2.8v9.7l.1 1.2.6 1.2 1.1.8c.4.3 1 .4 1.7.4.6 0 1.2-.1 1.6-.4a3.1 3.1 0 001.7-2l.1-1.2v-9.7h2.8V32zm2.9-4.9h2.5v1.7c.3-.5.6-1 1.1-1.4.6-.4 1.2-.6 2.1-.6.7 0 1.3.2 1.8.4a3.4 3.4 0 011.9 2.2l.2 1.6v6.6h-2.7v-6.3l-.2-1-.6-.8c-.3-.2-.6-.3-1.1-.3-.4 0-.8 0-1.1.2l-.7.6-.5.9-.1 1v5.7h-2.6V27.1zm12.3 0h2.6v10.5H82V27.1zm-.4-3.6c0-.4.2-.7.5-1 .3-.4.7-.5 1.2-.5s.9.1 1.2.4c.4.3.5.7.5 1.1 0 .5-.1.9-.5 1.2-.3.3-.7.4-1.2.4a1.6 1.6 0 01-1.7-1.6m4.5 3.6h3l2.7 7.4 2.9-7.4h2.7l-4.2 10.5h-2.8l-4.3-10.5zm19.8 4.2c0-.8-.3-1.4-.8-1.8-.4-.5-1-.7-2-.7-.7 0-1.3.2-1.8.7a3 3 0 00-.8 1.8h5.4zm-5.4 2c0 .8.4 1.4.9 1.8.5.5 1.1.7 1.9.7.6 0 1.2-.2 1.6-.4.5-.3.9-.6 1.2-1l1.9 1.4a5.3 5.3 0 01-4.4 2c-.8 0-1.6 0-2.3-.3a5.3 5.3 0 01-3-2.9 5.6 5.6 0 011.2-6.3 6.3 6.3 0 014-1.5c.8 0 1.4.2 2 .4a5 5 0 011.6 1.1c.4.5.8 1.1 1 1.8.3.7.4 1.5.4 2.5v.7h-8zm10.2-6.2h2.7v1.7a3.3 3.3 0 013.6-2l.5.2v2.5a7.5 7.5 0 00-1.3-.2c-.6 0-1.1.2-1.5.4-.4.2-.6.5-.8.8-.2.3-.4.5-.4.8l-.1.7v5.6h-2.7V27.1zM125 30a2.4 2.4 0 00-3.1-.8c-.3.2-.5.5-.5.9 0 .3.1.5.4.7l1 .3a85.9 85.9 0 002.8.9c.4.2.8.5 1 .9.3.4.5 1 .5 1.6a3 3 0 01-1.5 2.6c-.4.3-1 .5-1.5.6a7.7 7.7 0 01-3.8-.2c-.7-.2-1.3-.6-1.9-1.2l1.8-1.7 1 1 1.5.3h.6l.5-.3c.2 0 .4-.2.5-.4l.1-.5c0-.4-.1-.6-.4-.8l-1-.4a23 23 0 00-1.4-.3l-1.4-.5a2.6 2.6 0 01-1.5-2.5 3 3 0 011.4-2.5l1.3-.7a6.2 6.2 0 013.7.2c.6.2 1.2.7 1.6 1.2L125 30zm4-2.9h2.7v10.5h-2.6V27.1zm-.3-3.6c0-.4.2-.7.5-1 .3-.4.7-.5 1.2-.5s.9.1 1.2.4c.3.3.5.7.5 1.1 0 .5-.2.9-.5 1.2-.3.3-.7.4-1.2.4a1.6 1.6 0 01-1.7-1.6m4.6 5.8v-2.2h2.2v-3h2.6v3h2.9v2.2h-3V34c0 .6.2 1 .4 1.3.2.3.6.4 1.2.4h.7c.3 0 .5-.2.7-.3v2.2c-.3.2-.6.3-1 .3h-1.1c-.7 0-1.3 0-1.7-.2a2.3 2.3 0 01-1.6-1.8l-.1-1.6v-4.9h-2.2zm8.7-2.2h2.9l3 7.3 2.6-7.3h2.7l-5 12.8a8 8 0 01-.6 1.3l-.8 1a3 3 0 01-1 .5l-1.5.2c-.7 0-1.4-.1-2-.3l.3-2.4.6.2.7.1h.8l.6-.4.4-.4.3-.7.5-1.3-4.5-10.6zm19.7 5.3l.2 1.1a3 3 0 001.6 1.8l1.3.2a3 3 0 002.3-1c.2-.2.5-.6.6-1a3.4 3.4 0 00-.6-3.3 3 3 0 00-2.3-1 3 3 0 00-2.3 1 3 3 0 00-.6 1l-.2 1.2m-2.6 0a5.5 5.5 0 011.7-4c.5-.5 1-.9 1.8-1.2a6.3 6.3 0 016.3 1.2 5.3 5.3 0 011.6 4 5.6 5.6 0 01-1.6 4c-.5.5-1.2.8-1.9 1a6.3 6.3 0 01-6.2-1 5.3 5.3 0 01-1.7-4m14.6-3.1h-2.2v-2.2h2.2v-1.5l.1-2c.1-.6.3-1 .6-1.5.3-.4.7-.7 1.2-1a5 5 0 012-.3c.6 0 1.1 0 1.7.2l-.2 2.2a9 9 0 00-1.1-.2l-.9.2-.5.5-.2.7-.1.8v2h2.4v2.1h-2.4v8.3h-2.6v-8.3zM65 46.8c-.6-.6-1.1-1-1.6-1.2l-1.6-.3a5 5 0 00-5 3.4 6.7 6.7 0 000 4.5c.3.6.6 1.2 1.1 1.7a5 5 0 003.9 1.7 4 4 0 001.8-.5 5 5 0 001.6-1.4l2.3 1.6c-.7 1-1.5 1.7-2.5 2.1a9 9 0 01-6.5 0 7.5 7.5 0 01-4.3-4.1 9 9 0 010-6.7 7.4 7.4 0 014.3-4.2 9 9 0 016.2 0c.9.3 1.7 1 2.5 1.8L65 46.8zm11.5 5.6c0-.8-.3-1.4-.8-1.9-.4-.4-1-.6-2-.6-.7 0-1.3.2-1.8.6a3 3 0 00-.8 1.9h5.4zm-5.4 2c0 .7.4 1.3.9 1.8.5.4 1.1.6 1.9.6.6 0 1.2-.1 1.6-.4.5-.3.9-.6 1.2-1l1.9 1.4c-.6.8-1.3 1.3-2 1.6a6.3 6.3 0 01-4.6 0 5.3 5.3 0 01-3.1-2.7c-.3-.7-.5-1.5-.5-2.3a5.5 5.5 0 011.7-4c.5-.5 1.1-.9 1.8-1.1.7-.3 1.5-.4 2.3-.4.7 0 1.3.1 2 .4.6.2 1 .6 1.5 1 .4.6.8 1.2 1 1.9.3.7.4 1.5.4 2.4v.7h-8zm10.2-6.2h2.5v1.6c.3-.5.7-1 1.2-1.3.5-.4 1.2-.6 2.1-.6.7 0 1.3.1 1.8.3a3.4 3.4 0 011.8 2.3c.2.5.2 1 .2 1.5v6.7h-2.6v-6.4l-.3-1c-.1-.3-.3-.5-.6-.7-.2-.2-.6-.3-1-.3-.5 0-.8 0-1.1.2-.3.1-.6.3-.8.6l-.4.8-.1 1v5.8h-2.7V48.2zm11.1 2.2v-2.2h2.2v-3h2.6v3h3v2.2h-3V55c0 .5.1 1 .3 1.2.2.3.6.5 1.2.5h.8l.6-.3v2.2l-1 .2-1 .1c-.8 0-1.3 0-1.8-.2-.4-.2-.8-.4-1-.7-.3-.3-.5-.7-.6-1.2l-.1-1.6v-4.8h-2.2zm9.7-2.2h2.7v1.6a3.3 3.3 0 013.6-1.9l.5.1v2.6a7.7 7.7 0 00-1.3-.2c-.6 0-1.1.1-1.5.3l-.8.8c-.2.3-.4.6-.4.9l-.1.6v5.7H102V48.2zm14.8 5.8h-.6a19.2 19.2 0 00-2.5.2 3 3 0 00-1 .5 1 1 0 00-.4.9l.1.6.5.4.6.3h.6c1 0 1.6-.2 2-.6.5-.4.7-1 .7-1.8V54zm.1 3.2c-.4.6-.9 1-1.5 1.3-.6.3-1.2.4-2 .4-.4 0-.9 0-1.3-.2-.5-.1-.9-.3-1.3-.6a2.8 2.8 0 01-1.2-2.4c0-.5.2-1 .4-1.4.2-.4.4-.7.8-1 .3-.3.7-.5 1.2-.6l1.4-.4a12.5 12.5 0 012.9-.2h.6v-.3c0-.6-.2-1.1-.7-1.4-.4-.4-1-.5-1.7-.5a4 4 0 00-2.8 1l-1.4-1.3a5 5 0 012-1.3 7.5 7.5 0 014.4-.2c.5.2 1 .4 1.3.7l.7.9.4 1 .2 1v7H117v-1.5z"/><path fill="#fff" d="M122 42.1h2.7v16.5h-2.6z"/><path fill="#fff" fill-rule="nonzero" d="M134.5 43.2h2.7v13h6.6v2.5h-9.3V43.2zM152.2 54h-.6a19.2 19.2 0 00-2.5.2 3 3 0 00-1 .5 1 1 0 00-.4.9l.1.6.5.4.6.3h.6c1 0 1.6-.2 2-.6.4-.4.7-1 .7-1.8V54zm.1 3.2c-.4.6-1 1-1.5 1.3-.6.3-1.2.4-2 .4-.4 0-.9 0-1.3-.2-.5-.1-.9-.3-1.3-.6a2.8 2.8 0 01-1.2-2.4c0-.5.1-1 .4-1.4.2-.4.4-.7.8-1 .3-.3.7-.5 1.2-.6l1.4-.4a12.5 12.5 0 012.9-.2h.6v-.3c0-.6-.2-1.1-.7-1.4-.4-.4-1-.5-1.7-.5a4 4 0 00-2.8 1l-1.4-1.3a5 5 0 012-1.3 7.5 7.5 0 014.4-.2c.5.2 1 .4 1.2.7l.8.9.4 1 .2 1v7h-2.4v-1.5zm5.1-9h2.5v1.6c.3-.5.7-1 1.2-1.3.5-.4 1.2-.6 2-.6.7 0 1.3.1 1.8.3a3.4 3.4 0 011.9 2.3l.2 1.5v6.7h-2.7v-6.4l-.2-1-.6-.7c-.3-.2-.6-.3-1-.3-.5 0-.9 0-1.2.2-.3.1-.5.3-.7.6l-.5.8v6.8h-2.7V48.2zm19.5 3.1l-1-.8a2 2 0 00-1-.2 3 3 0 00-2.3 1 3 3 0 00-.6 1 3.4 3.4 0 00.6 3.3 3 3 0 002.3 1c.4 0 .8-.1 1.1-.3l1-.7 1.7 1.9a4 4 0 01-1 .6 6.2 6.2 0 01-5 .4 5.4 5.4 0 01-3-2.8c-.4-.7-.5-1.5-.5-2.3a5.6 5.6 0 011.6-4c.5-.5 1.1-.9 1.8-1.1.7-.3 1.5-.4 2.3-.4.6 0 1.3.1 2 .4.7.2 1.3.6 1.8 1.2l-1.8 1.8zm9.9 2.7h-.6a19.2 19.2 0 00-2.5.2 3 3 0 00-1 .5 1 1 0 00-.4.9l.1.6.5.4.6.3h.6c1 0 1.6-.2 2-.6.4-.4.7-1 .7-1.8V54zm.1 3.2c-.4.6-1 1-1.5 1.3-.6.3-1.2.4-2 .4-.4 0-.9 0-1.3-.2-.5-.1-.9-.3-1.3-.6a2.8 2.8 0 01-1.2-2.4c0-.5.2-1 .4-1.4.2-.4.4-.7.8-1 .3-.3.7-.5 1.2-.6l1.4-.4a12.5 12.5 0 012.9-.2h.6v-.3c0-.6-.2-1.1-.7-1.4-.4-.4-1-.5-1.7-.5a4 4 0 00-2.8 1l-1.4-1.3a5 5 0 012-1.3 7.5 7.5 0 014.4-.2c.5.2 1 .4 1.2.7l.8.9.4 1 .2 1v7h-2.4v-1.5zm10.7-6.2a2.4 2.4 0 00-3-.7c-.4.1-.5.4-.5.8 0 .3.1.6.4.7a79.5 79.5 0 003.8 1.2c.4.2.7.5 1 1 .3.3.4.9.4 1.6a3 3 0 01-1.4 2.6l-1.5.5a7.7 7.7 0 01-3.9-.1c-.6-.3-1.3-.7-1.8-1.3l1.8-1.6 1 .9c.4.2.9.4 1.4.4l.6-.1.6-.2.4-.4.2-.5c0-.4-.1-.7-.4-.9l-1-.4c-.5 0-1-.2-1.4-.3-.5 0-1-.2-1.4-.5-.4-.2-.8-.5-1-.8a3 3 0 01.9-4.2c.3-.3.8-.5 1.3-.6a6.2 6.2 0 013.6.2c.7.2 1.3.6 1.7 1.2l-1.8 1.6zm6.8-1.4a3 3 0 011.1-1.2c.5-.3 1.2-.5 2-.5.7 0 1.3.1 1.8.3a3.4 3.4 0 011.8 2.3c.2.5.2 1 .2 1.5v6.7h-2.6v-6.4l-.3-1c0-.3-.3-.5-.5-.7-.3-.2-.7-.3-1.1-.3-.4 0-.8 0-1.1.2-.3.1-.6.3-.8.6l-.4.8-.1 1v5.8h-2.6V42h2.6v7.5zm9.7-1.4h2.6v10.5h-2.6V48.2zm-.4-3.6c0-.4.2-.8.5-1.1.3-.3.7-.5 1.2-.5s.9.2 1.2.5c.3.3.5.6.5 1 0 .5-.2 1-.5 1.2-.3.3-.7.5-1.2.5a1.6 1.6 0 01-1.7-1.6m5.9 3.6h2.6v1.6a3.3 3.3 0 014-1.8v2.6a7.6 7.6 0 00-1.2-.2c-.6 0-1 .1-1.5.3l-.8.8-.4.9-.1.6v5.7h-2.6V48.2zm15.8 4.2c0-.8-.3-1.4-.7-1.9-.5-.4-1.2-.6-2-.6s-1.4.2-1.9.6a3 3 0 00-.8 1.9h5.4zm-5.4 2c0 .7.4 1.3 1 1.8.4.4 1 .6 1.8.6.7 0 1.2-.1 1.7-.4l1.1-1 2 1.4c-.7.8-1.4 1.3-2.1 1.6a6.3 6.3 0 01-4.6 0 5.4 5.4 0 01-3-2.7c-.4-.7-.5-1.5-.5-2.3a5.5 5.5 0 011.6-4c.5-.5 1.1-.9 1.8-1.1.7-.3 1.5-.4 2.3-.4.7 0 1.4.1 2 .4.6.2 1.1.6 1.5 1 .5.6.8 1.2 1 1.9.3.7.4 1.5.4 2.4v.7h-8z"/></svg>